Patient4_TMGait_0pt5_02_left_37_GRF.mot
version=1
nRows=64
nColumns=19
inDegrees=no
endheader
time	F1x	F1y	F1z	M1x	M1y	M1z	F2x	F2y	F2z	M2x	M2y	M2z	EC1x	EC1y	EC1z	EC2x	EC2y	EC2z
47.63	5.2733	16.2128	-3.0405	-2.9125	2.5811	18.9554	-40.0667	716.4175	-55.7686	266.9283	68.442	737.5207	-0.0592	0.0182	-0.0073	-0.0462	0.0165	0.9585
47.6432	3.4827	11.3625	-1.965	-2.1414	1.6238	13.3248	-37.4769	730.0091	-54.4566	270.7381	66.6937	746.233	-0.0592	0.0182	-0.0073	-0.0462	0.0165	0.9585
47.6564	1.9726	7.2802	-1.0868	-1.49	0.84002	8.5796	-34.9035	744.5451	-52.9107	275.1561	64.5624	755.4554	-0.0592	0.0182	-0.0073	-0.0462	0.0165	0.9585
47.6696	0.83449	4.2022	-0.43851	-1.0012	0.26364	4.9998	-32.3892	759.0402	-51.3371	279.8898	62.2429	764.365	-0.0592	0.0182	-0.0073	-0.0462	0.0165	0.9585
47.6829	0.051305	2.1142	-0.010945	-0.67397	-0.11458	2.5713	-29.8372	772.4445	-49.9153	284.5394	59.8831	771.9842	-0.0592	0.0182	-0.0073	-0.0462	0.0165	0.9585
47.6961	-0.43359	0.8557	0.2406	-0.47966	-0.33815	1.103	-27.0774	783.722	-48.8137	288.666	57.6096	777.3091	-0.0592	0.0182	-0.0073	-0.0462	0.0165	0.9585
47.7093	-0.70249	0.2003	0.35879	-0.37745	-0.45244	0.33565	-23.9169	791.9752	-48.0864	291.8731	55.4366	779.4544	-0.0592	0.0182	-0.0073	-0.0462	0.0165	0.9585
47.7225	-0.83803	-0.09443	0.39677	-0.31824	-0.50934	-0.0072256	-20.2187	796.5895	-47.7288	293.8716	53.342	777.8423	-0.0592	0.0182	-0.0073	-0.0462	0.0165	0.9585
47.7357	-0.90478	-0.25969	0.38535	-0.24836	-0.53273	-0.19539	-15.9408	797.3027	-47.6473	294.5167	51.2539	772.2709	-0.0592	0.0182	-0.0073	-0.0462	0.0165	0.9585
47.7489	-0.95075	-0.50572	0.36163	-0.11631	-0.55268	-0.4611	-11.143	794.2303	-47.7562	293.8176	49.139	762.9308	-0.0592	0.0182	-0.0073	-0.0462	0.0165	0.9585
47.7621	-0.98529	-1.015	0.33655	0.12488	-0.57255	-1.0113	-5.9482	787.8745	-47.9605	291.9384	46.9729	750.4068	-0.0592	0.0182	-0.0073	-0.0462	0.0165	0.9585
47.7754	-1.0134	-1.9227	0.32426	0.51482	-0.6009	-1.9946	-0.50774	779.038	-48.212	289.1627	44.7838	735.584	-0.0592	0.0182	-0.0073	-0.0462	0.0165	0.9585
47.7886	-1.0161	-3.3043	0.31203	1.0759	-0.61566	-3.5039	4.9992	768.6574	-48.4905	285.8287	42.6283	719.465	-0.0592	0.0182	-0.0073	-0.0462	0.0165	0.9585
47.8018	-0.9632	-5.1524	0.29675	1.8019	-0.59785	-5.5311	10.3943	757.7041	-48.824	282.2864	40.6008	703.0674	-0.0592	0.0182	-0.0073	-0.0462	0.0165	0.9585
47.815	-0.7987	-7.3206	0.25125	2.6359	-0.49713	-7.9115	15.52	747.1373	-49.2524	278.876	38.7921	687.3816	-0.0592	0.0182	-0.0073	-0.0462	0.0165	0.9585
47.8282	-0.45237	-9.4565	0.15495	3.4446	-0.264	-10.2534	20.2351	737.792	-49.8251	275.8876	37.2867	673.2595	-0.0592	0.0182	-0.0073	-0.0462	0.0165	0.9585
47.8414	0.15296	-10.9042	-0.028937	3.9823	0.16692	-11.8328	24.4237	730.2675	-50.5791	273.5195	36.1473	661.3176	-0.0592	0.0182	-0.0073	-0.0462	0.0165	0.9585
47.8546	1.0943	-10.6461	-0.32763	3.8696	0.85213	-11.5423	28.0005	724.8055	-51.5276	271.8348	35.4069	651.8284	-0.0592	0.0182	-0.0073	-0.0462	0.0165	0.9585
47.8679	2.4158	-7.2442	-0.77584	2.5726	1.8395	-7.8213	30.9119	721.2108	-52.6429	270.7348	35.0538	644.6536	-0.0592	0.0182	-0.0073	-0.0462	0.0165	0.9585
47.8811	4.1044	1.1278	-1.3819	-0.58932	3.126	1.3134	33.1303	718.7985	-53.8527	269.9435	35.0309	639.2029	-0.0592	0.0182	-0.0073	-0.0462	0.0165	0.9585
47.8943	6.0327	16.5532	-2.1161	-6.3935	4.6214	18.126	34.6651	716.4245	-55.042	269.0218	35.2386	634.4577	-0.0592	0.0182	-0.0073	-0.0462	0.0165	0.9585
47.9075	7.898	41.0525	-2.8813	-15.5917	6.0974	44.8311	35.5468	712.6051	-56.0489	267.4157	35.5312	629.0859	-0.0592	0.0182	-0.0073	-0.0462	0.0165	0.9585
47.9207	9.1534	75.9973	-3.4849	-28.69	7.1341	82.9361	35.8134	705.6928	-56.6712	264.5234	35.728	621.5934	-0.0592	0.0182	-0.0073	-0.0462	0.0165	0.9585
47.9339	8.9474	121.2087	-3.6237	-45.6104	7.0763	132.2534	35.483	694.0655	-56.6687	259.7684	35.624	610.5024	-0.0592	0.0182	-0.0073	-0.0462	0.0165	0.9585
47.9471	6.2478	173.8117	-2.8777	-65.2647	5.0852	189.651	34.5493	676.3407	-55.812	252.6758	35.0382	594.5425	-0.0592	0.0182	-0.0073	-0.0462	0.0165	0.9585
47.9604	0.89525	227.8457	-0.71306	-85.3945	0.5394	248.6195	33.0495	651.7059	-53.9303	242.9944	33.8263	572.9146	-0.0592	0.0182	-0.0073	-0.0462	0.0165	0.9585
47.9736	-5.6996	276.4257	3.4108	-103.4023	-6.5423	301.5122	31.13	620.3081	-51.0079	230.8331	31.938	545.6176	-0.0592	0.0182	-0.0073	-0.0462	0.0165	0.9585
47.9868	-12.1313	316.1438	8.8446	-118.0282	-14.9098	344.4189	29.053	583.3498	-47.2498	216.6784	29.458	513.5497	-0.0592	0.0182	-0.0073	-0.0462	0.0165	0.9585
48	-17.4035	347.4123	14.9218	-129.4513	-23.4598	377.6746	27.1042	542.5579	-43.0724	201.1902	26.6254	478.0814	-0.0592	0.0182	-0.0073	-0.0462	0.0165	0.9585
48.0132	-20.9942	372.4097	20.7307	-138.5341	-31.0288	403.6324	25.482	499.6578	-38.8797	185.0122	23.6929	440.6352	-0.0592	0.0182	-0.0073	-0.0462	0.0165	0.9585
48.0264	-22.8914	393.6324	25.7488	-146.2389	-37.0394	425.0769	24.2591	456.1472	-34.8632	168.7021	20.779	402.491	-0.0592	0.0182	-0.0073	-0.0462	0.0165	0.9585
48.0396	-23.3261	413.0458	29.4795	-153.3289	-41.0695	444.1587	23.3785	413.2496	-31.0534	152.709	17.918	364.7468	-0.0592	0.0182	-0.0073	-0.0462	0.0165	0.9585
48.0529	-22.6892	432.0707	31.9522	-160.322	-43.2924	462.5018	22.7139	371.8069	-27.3927	137.3367	15.1003	328.1776	-0.0592	0.0182	-0.0073	-0.0462	0.0165	0.9585
48.0661	-21.2906	451.679	33.3266	-167.5598	-44.0158	481.1903	22.0706	332.2934	-23.8568	122.744	12.3725	293.26	-0.0592	0.0182	-0.0073	-0.0462	0.0165	0.9585
48.0793	-19.45	472.5966	34.1569	-175.2692	-43.9404	501.0926	21.248	294.84	-20.4839	108.9568	9.8399	260.1559	-0.0592	0.0182	-0.0073	-0.0462	0.0165	0.9585
48.0925	-17.444	495.2728	34.8973	-183.5864	-43.6626	522.6814	20.0613	259.3969	-17.3643	95.9303	7.6476	228.852	-0.0592	0.0182	-0.0073	-0.0462	0.0165	0.9585
48.1057	-15.6106	519.8863	36.1155	-192.5438	-43.8985	546.1643	18.3787	225.88	-14.5944	83.6114	5.9274	199.2909	-0.0592	0.0182	-0.0073	-0.0462	0.0165	0.9585
48.1189	-14.1947	546.5771	37.9891	-202.1801	-44.9404	571.6485	16.1829	194.3158	-12.2445	71.9939	4.7525	171.4866	-0.0592	0.0182	-0.0073	-0.0462	0.0165	0.9585
48.1321	-13.2695	575.5344	40.5383	-212.5652	-46.847	599.2818	13.5571	164.8563	-10.3221	61.1236	4.1015	145.5555	-0.0592	0.0182	-0.0073	-0.0462	0.0165	0.9585
48.1454	-12.8228	606.7122	43.4411	-223.7045	-49.296	628.9608	10.6787	137.664	-8.7706	51.0625	3.8556	121.6112	-0.0592	0.0182	-0.0073	-0.0462	0.0165	0.9585
48.1586	-12.7346	639.5702	46.5391	-235.4107	-52.0824	660.1001	7.7246	112.8569	-7.4946	41.8628	3.8611	99.7529	-0.0592	0.0182	-0.0073	-0.0462	0.0165	0.9585
48.1718	-12.9089	673.0893	49.6294	-247.3119	-54.9626	691.6652	4.8713	90.4845	-6.3873	33.5552	3.9592	80.0164	-0.0592	0.0182	-0.0073	-0.0462	0.0165	0.9585
48.185	-13.2554	705.9064	52.6897	-258.8993	-57.8749	722.3063	2.274	70.5351	-5.3632	26.1466	4.0197	62.3982	-0.0592	0.0182	-0.0073	-0.0462	0.0165	0.9585
48.1982	-13.7053	736.6134	55.581	-269.6504	-60.6516	750.639	0.064501	53.0048	-4.3702	19.6422	3.9474	46.9179	-0.0592	0.0182	-0.0073	-0.0462	0.0165	0.9585
48.2114	-14.1536	763.9612	58.2519	-279.1013	-63.2009	775.4608	-1.6185	37.8981	-3.4006	14.0467	3.6898	33.5832	-0.0592	0.0182	-0.0073	-0.0462	0.0165	0.9585
48.2246	-14.4708	786.9627	60.5507	-286.897	-65.3265	795.8128	-2.6973	25.2862	-2.4698	9.3832	3.2361	22.4702	-0.0592	0.0182	-0.0073	-0.0462	0.0165	0.9585
48.2379	-14.5449	804.8857	62.4502	-292.7808	-66.9578	811.0066	-3.1184	15.2403	-1.6311	5.6757	2.6239	13.6253	-0.0592	0.0182	-0.0073	-0.0462	0.0165	0.9585
48.2511	-14.2586	817.2097	63.8439	-296.5865	-67.9505	820.5331	-2.9946	7.8048	-0.93374	2.9355	1.9425	7.0841	-0.0592	0.0182	-0.0073	-0.0462	0.0165	0.9585
48.2643	-13.5539	823.63	64.7208	-298.228	-68.2711	824.1216	-2.5902	2.8124	-0.40711	1.0966	1.3129	2.6989	-0.0592	0.0182	-0.0073	-0.0462	0.0165	0.9585
48.2775	-12.3835	824.1224	65.0136	-297.7263	-67.8453	821.7595	-2.0778	-0.16409	-0.047092	0.0013519	0.79767	0.086865	-0.0592	0.0182	-0.0073	-0.0462	0.0165	0.9585
48.2907	-10.7679	819.0596	64.7762	-295.2419	-66.7334	813.8413	-1.5928	-1.6209	0.17477	-0.53649	0.41966	-1.1695	-0.0592	0.0182	-0.0073	-0.0462	0.0165	0.9585
48.3039	-8.7571	809.2273	64.0365	-291.0823	-64.9847	801.1684	-1.1729	-2.0487	0.29288	-0.69781	0.16291	-1.5199	-0.0592	0.0182	-0.0073	-0.0462	0.0165	0.9585
48.3171	-6.4306	795.752	62.9272	-285.6672	-62.7549	784.8676	-0.85496	-1.8381	0.3398	-0.62706	0.006644	-1.3002	-0.0592	0.0182	-0.0073	-0.0462	0.0165	0.9585
48.3304	-3.8741	780.0046	61.5318	-279.4978	-60.1577	766.285	-0.63211	-1.3033	0.34398	-0.43667	-0.07569	-0.78928	-0.0592	0.0182	-0.0073	-0.0462	0.0165	0.9585
48.3436	-1.1679	763.4551	59.9846	-273.1064	-57.3478	746.8531	-0.49098	-0.6566	0.32143	-0.2036	-0.10128	-0.17999	-0.0592	0.0182	-0.0073	-0.0462	0.0165	0.9585
48.3568	1.6233	747.5474	58.3795	-267.0098	-54.4395	727.9676	-0.42757	-0.027907	0.28514	0.025295	-0.084111	0.41461	-0.0592	0.0182	-0.0073	-0.0462	0.0165	0.9585
48.37	4.4237	733.5246	56.8437	-261.6459	-51.5769	710.816	-0.41999	0.48936	0.23856	0.21771	-0.032009	0.90019	-0.0592	0.0182	-0.0073	-0.0462	0.0165	0.9585
48.3832	7.1817	722.3305	55.4768	-257.341	-48.8701	696.2858	-0.47624	0.85583	0.19526	0.35589	0.043684	1.2506	-0.0592	0.0182	-0.0073	-0.0462	0.0165	0.9585
48.3964	9.8711	714.588	54.368	-254.3066	-46.4089	684.9599	-0.56941	1.0207	0.15202	0.41997	0.13676	1.3988	-0.0592	0.0182	-0.0073	-0.0462	0.0165	0.9585
48.4096	12.4945	710.5966	53.5738	-252.6375	-44.245	677.1102	-0.70341	0.94376	0.11292	0.39127	0.24012	1.2973	-0.0592	0.0182	-0.0073	-0.0462	0.0165	0.9585
48.4229	15.0751	710.3541	53.1172	-252.3203	-42.3955	672.7102	-0.86333	0.57188	0.073246	0.24636	0.35182	0.87092	-0.0592	0.0182	-0.0073	-0.0462	0.0165	0.9585
48.4361	17.6136	713.5735	52.9952	-253.2417	-40.8593	671.4816	-1.0326	-0.14442	0.032353	-0.037085	0.46569	0.048735	-0.0592	0.0182	-0.0073	-0.0462	0.0165	0.9585
48.4493	20.1278	719.6868	53.1633	-255.197	-39.5933	672.9002	-1.1909	-1.2459	-0.01717	-0.47877	0.57985	-1.2179	-0.0592	0.0182	-0.0073	-0.0462	0.0165	0.9585
48.4625	22.6177	727.8858	53.5684	-257.8961	-38.5499	676.2408	-1.2805	-2.7519	-0.072189	-1.0873	0.67018	-2.96	-0.0592	0.0182	-0.0073	-0.0462	0.0165	0.9585
